<mxfile host="app.diagrams.net" modified="2021-08-31T10:32:21.633Z" agent="5.0 (Windows NT 10.0; Win64; x64) AppleWebKit/537.36 (KHTML, like Gecko) Chrome/92.0.4515.159 Safari/537.36" etag="mqGnRCkfZcisdvQQ3vmZ" version="14.9.8" type="github">
  <diagram id="MfXKGOpnWObn4Judmr_a" name="Page-1">
    <mxGraphModel dx="1216" dy="1104" grid="1" gridSize="10" guides="1" tooltips="1" connect="1" arrows="1" fold="1" page="1" pageScale="1" pageWidth="1169" pageHeight="827" math="0" shadow="1">
      <root>
        <mxCell id="0" />
        <mxCell id="1" parent="0" />
        <mxCell id="PoUm69e8xTWA21SCmQiw-12" style="edgeStyle=orthogonalEdgeStyle;rounded=0;sketch=1;orthogonalLoop=1;jettySize=auto;html=1;exitX=1;exitY=0.5;exitDx=0;exitDy=0;entryX=0;entryY=0.5;entryDx=0;entryDy=0;fontSize=11;" edge="1" parent="1" source="49e_q3YGkyJPLk-DuYrC-1" target="PoUm69e8xTWA21SCmQiw-11">
          <mxGeometry relative="1" as="geometry" />
        </mxCell>
        <mxCell id="49e_q3YGkyJPLk-DuYrC-1" value="ZRC Token Added&lt;br&gt;To Vault" style="rounded=0;whiteSpace=wrap;html=1;sketch=1;fillColor=#f5f5f5;strokeColor=#666666;fontColor=#333333;" parent="1" vertex="1">
          <mxGeometry x="200" y="280" width="120" height="60" as="geometry" />
        </mxCell>
        <mxCell id="PoUm69e8xTWA21SCmQiw-44" style="edgeStyle=orthogonalEdgeStyle;rounded=0;sketch=0;orthogonalLoop=1;jettySize=auto;html=1;exitX=0.375;exitY=0;exitDx=0;exitDy=0;entryX=0.75;entryY=0;entryDx=0;entryDy=0;shadow=0;dashed=1;fontSize=11;" edge="1" parent="1" source="49e_q3YGkyJPLk-DuYrC-2" target="PoUm69e8xTWA21SCmQiw-11">
          <mxGeometry relative="1" as="geometry" />
        </mxCell>
        <mxCell id="PoUm69e8xTWA21SCmQiw-48" style="edgeStyle=orthogonalEdgeStyle;rounded=0;sketch=1;orthogonalLoop=1;jettySize=auto;html=1;exitX=1;exitY=0.5;exitDx=0;exitDy=0;shadow=0;fontSize=11;startArrow=classic;startFill=1;" edge="1" parent="1" source="49e_q3YGkyJPLk-DuYrC-2" target="PoUm69e8xTWA21SCmQiw-38">
          <mxGeometry relative="1" as="geometry" />
        </mxCell>
        <mxCell id="PoUm69e8xTWA21SCmQiw-50" style="edgeStyle=orthogonalEdgeStyle;rounded=0;sketch=0;orthogonalLoop=1;jettySize=auto;html=1;exitX=0.5;exitY=0;exitDx=0;exitDy=0;shadow=0;fontSize=11;startArrow=none;startFill=0;dashed=1;" edge="1" parent="1" source="49e_q3YGkyJPLk-DuYrC-2">
          <mxGeometry relative="1" as="geometry">
            <mxPoint x="60" y="320" as="targetPoint" />
            <Array as="points">
              <mxPoint x="730" y="260" />
              <mxPoint x="60" y="260" />
            </Array>
          </mxGeometry>
        </mxCell>
        <mxCell id="49e_q3YGkyJPLk-DuYrC-2" value="CARBSwap" style="shape=hexagon;perimeter=hexagonPerimeter2;whiteSpace=wrap;html=1;fixedSize=1;sketch=1;fillColor=#e1d5e7;strokeColor=#9673a6;shadow=0;rounded=0;" parent="1" vertex="1">
          <mxGeometry x="670" y="320" width="120" height="80" as="geometry" />
        </mxCell>
        <mxCell id="PoUm69e8xTWA21SCmQiw-32" style="edgeStyle=orthogonalEdgeStyle;rounded=0;sketch=0;orthogonalLoop=1;jettySize=auto;html=1;exitX=0;exitY=0.5;exitDx=0;exitDy=0;shadow=0;fontSize=11;strokeColor=none;dashed=1;" edge="1" parent="1" source="49e_q3YGkyJPLk-DuYrC-21">
          <mxGeometry relative="1" as="geometry">
            <mxPoint x="50" y="320" as="targetPoint" />
          </mxGeometry>
        </mxCell>
        <mxCell id="PoUm69e8xTWA21SCmQiw-33" style="edgeStyle=orthogonalEdgeStyle;rounded=0;sketch=0;orthogonalLoop=1;jettySize=auto;html=1;exitX=0;exitY=0.5;exitDx=0;exitDy=0;shadow=0;dashed=1;fontSize=11;" edge="1" parent="1" source="49e_q3YGkyJPLk-DuYrC-21">
          <mxGeometry relative="1" as="geometry">
            <mxPoint x="50" y="320" as="targetPoint" />
          </mxGeometry>
        </mxCell>
        <mxCell id="49e_q3YGkyJPLk-DuYrC-21" value="&lt;h1&gt;$GRAPH&lt;/h1&gt;&lt;p&gt;Each week 5000 $GRAPH tokens will be distributed as rewards to Liquidity Providers based on the percentage of liquidity they have provided.&lt;br&gt;&lt;br&gt;&lt;/p&gt;" style="text;html=1;strokeColor=#666666;fillColor=#f5f5f5;spacing=5;spacingTop=-20;whiteSpace=wrap;overflow=hidden;rounded=0;sketch=1;fontColor=#333333;spacingLeft=1;spacingRight=0;" parent="1" vertex="1">
          <mxGeometry x="515" y="50" width="190" height="130" as="geometry" />
        </mxCell>
        <mxCell id="49e_q3YGkyJPLk-DuYrC-23" value="" style="shape=curlyBracket;whiteSpace=wrap;html=1;rounded=1;sketch=1;" parent="1" vertex="1">
          <mxGeometry x="170" y="280" width="20" height="160" as="geometry" />
        </mxCell>
        <mxCell id="PoUm69e8xTWA21SCmQiw-29" style="edgeStyle=orthogonalEdgeStyle;rounded=0;sketch=1;orthogonalLoop=1;jettySize=auto;html=1;entryX=0.1;entryY=0.5;entryDx=0;entryDy=0;entryPerimeter=0;shadow=0;fontSize=11;" edge="1" parent="1" source="49e_q3YGkyJPLk-DuYrC-24" target="49e_q3YGkyJPLk-DuYrC-23">
          <mxGeometry relative="1" as="geometry" />
        </mxCell>
        <mxCell id="PoUm69e8xTWA21SCmQiw-58" style="edgeStyle=orthogonalEdgeStyle;rounded=0;sketch=0;orthogonalLoop=1;jettySize=auto;html=1;entryX=0.367;entryY=1;entryDx=0;entryDy=0;entryPerimeter=0;shadow=0;fontSize=11;startArrow=none;startFill=0;fillColor=#f8cecc;strokeColor=#b85450;" edge="1" parent="1" target="PoUm69e8xTWA21SCmQiw-11">
          <mxGeometry relative="1" as="geometry">
            <mxPoint x="55" y="420" as="sourcePoint" />
            <Array as="points">
              <mxPoint x="55" y="510" />
              <mxPoint x="464" y="510" />
            </Array>
          </mxGeometry>
        </mxCell>
        <mxCell id="49e_q3YGkyJPLk-DuYrC-24" value="LPer" style="shape=umlActor;verticalLabelPosition=bottom;verticalAlign=top;html=1;outlineConnect=0;sketch=1;fillColor=#d5e8d4;strokeColor=#82b366;" parent="1" vertex="1">
          <mxGeometry x="40" y="330" width="30" height="60" as="geometry" />
        </mxCell>
        <mxCell id="PoUm69e8xTWA21SCmQiw-13" style="edgeStyle=orthogonalEdgeStyle;rounded=0;sketch=1;orthogonalLoop=1;jettySize=auto;html=1;exitX=1;exitY=0.5;exitDx=0;exitDy=0;entryX=0;entryY=0.5;entryDx=0;entryDy=0;fontSize=11;" edge="1" parent="1" source="PoUm69e8xTWA21SCmQiw-7" target="PoUm69e8xTWA21SCmQiw-11">
          <mxGeometry relative="1" as="geometry" />
        </mxCell>
        <mxCell id="PoUm69e8xTWA21SCmQiw-7" value="CARB Added&lt;br&gt;To Vault" style="rounded=0;whiteSpace=wrap;html=1;sketch=1;fillColor=#f5f5f5;strokeColor=#666666;fontColor=#333333;" vertex="1" parent="1">
          <mxGeometry x="200" y="380" width="120" height="60" as="geometry" />
        </mxCell>
        <mxCell id="PoUm69e8xTWA21SCmQiw-14" style="edgeStyle=orthogonalEdgeStyle;rounded=0;sketch=1;orthogonalLoop=1;jettySize=auto;html=1;exitX=1;exitY=0.5;exitDx=0;exitDy=0;entryX=0;entryY=0.5;entryDx=0;entryDy=0;fontSize=11;startArrow=classic;startFill=1;" edge="1" parent="1" source="PoUm69e8xTWA21SCmQiw-11" target="49e_q3YGkyJPLk-DuYrC-2">
          <mxGeometry relative="1" as="geometry" />
        </mxCell>
        <mxCell id="PoUm69e8xTWA21SCmQiw-16" style="edgeStyle=orthogonalEdgeStyle;rounded=0;sketch=0;orthogonalLoop=1;jettySize=auto;html=1;exitX=0.25;exitY=1;exitDx=0;exitDy=0;fontSize=11;dashed=1;" edge="1" parent="1" source="PoUm69e8xTWA21SCmQiw-11">
          <mxGeometry relative="1" as="geometry">
            <mxPoint x="70" y="420" as="targetPoint" />
            <Array as="points">
              <mxPoint x="450" y="480" />
              <mxPoint x="70" y="480" />
              <mxPoint x="70" y="420" />
            </Array>
          </mxGeometry>
        </mxCell>
        <mxCell id="PoUm69e8xTWA21SCmQiw-17" value="$KEYS Issued for CARB&amp;nbsp;&lt;br&gt;Deposited into VAULT" style="edgeLabel;html=1;align=center;verticalAlign=middle;resizable=0;points=[];fontSize=11;labelBackgroundColor=none;" vertex="1" connectable="0" parent="PoUm69e8xTWA21SCmQiw-16">
          <mxGeometry x="0.0641" y="-2" relative="1" as="geometry">
            <mxPoint as="offset" />
          </mxGeometry>
        </mxCell>
        <mxCell id="PoUm69e8xTWA21SCmQiw-70" style="edgeStyle=orthogonalEdgeStyle;rounded=0;sketch=0;orthogonalLoop=1;jettySize=auto;html=1;exitX=0.75;exitY=1;exitDx=0;exitDy=0;shadow=0;fontSize=11;startArrow=none;startFill=0;endArrow=none;endFill=0;" edge="1" parent="1" source="PoUm69e8xTWA21SCmQiw-11">
          <mxGeometry relative="1" as="geometry">
            <mxPoint x="510" y="520" as="targetPoint" />
          </mxGeometry>
        </mxCell>
        <mxCell id="PoUm69e8xTWA21SCmQiw-11" value="ZRC2 &amp;amp; CARB VAULT" style="rounded=0;whiteSpace=wrap;html=1;sketch=1;fillColor=#f5f5f5;strokeColor=#666666;fontColor=#333333;" vertex="1" parent="1">
          <mxGeometry x="420" y="330" width="120" height="60" as="geometry" />
        </mxCell>
        <mxCell id="PoUm69e8xTWA21SCmQiw-87" style="edgeStyle=orthogonalEdgeStyle;rounded=0;sketch=0;orthogonalLoop=1;jettySize=auto;html=1;exitX=0.5;exitY=1;exitDx=0;exitDy=0;shadow=0;fontSize=11;startArrow=none;startFill=0;endArrow=none;endFill=0;" edge="1" parent="1" source="PoUm69e8xTWA21SCmQiw-18">
          <mxGeometry relative="1" as="geometry">
            <mxPoint x="40" y="700" as="targetPoint" />
            <Array as="points">
              <mxPoint x="970" y="760" />
              <mxPoint x="40" y="760" />
            </Array>
          </mxGeometry>
        </mxCell>
        <mxCell id="PoUm69e8xTWA21SCmQiw-18" value="IL Insurance Funds&lt;br&gt;(CARB)" style="rounded=0;whiteSpace=wrap;html=1;sketch=1;fillColor=#f5f5f5;strokeColor=#666666;fontColor=#333333;" vertex="1" parent="1">
          <mxGeometry x="910" y="580" width="120" height="100" as="geometry" />
        </mxCell>
        <mxCell id="PoUm69e8xTWA21SCmQiw-30" value="Deposits" style="text;html=1;strokeColor=none;fillColor=none;align=center;verticalAlign=middle;whiteSpace=wrap;rounded=0;labelBackgroundColor=none;fontSize=11;" vertex="1" parent="1">
          <mxGeometry x="105" y="340" width="40" height="20" as="geometry" />
        </mxCell>
        <mxCell id="PoUm69e8xTWA21SCmQiw-31" value="AND / OR" style="text;html=1;strokeColor=none;fillColor=none;align=center;verticalAlign=middle;whiteSpace=wrap;rounded=0;labelBackgroundColor=none;fontSize=11;fontStyle=1" vertex="1" parent="1">
          <mxGeometry x="230" y="350" width="60" height="20" as="geometry" />
        </mxCell>
        <mxCell id="PoUm69e8xTWA21SCmQiw-34" value="Weekly Distribution" style="text;html=1;strokeColor=none;fillColor=none;align=center;verticalAlign=middle;whiteSpace=wrap;rounded=0;labelBackgroundColor=none;fontSize=11;" vertex="1" parent="1">
          <mxGeometry x="400" y="104" width="80" height="20" as="geometry" />
        </mxCell>
        <mxCell id="PoUm69e8xTWA21SCmQiw-38" value="Users" style="shape=umlActor;verticalLabelPosition=bottom;verticalAlign=top;html=1;outlineConnect=0;sketch=1;fillColor=#f8cecc;strokeColor=#b85450;" vertex="1" parent="1">
          <mxGeometry x="910" y="330" width="30" height="60" as="geometry" />
        </mxCell>
        <mxCell id="PoUm69e8xTWA21SCmQiw-46" value="Fees Earned&amp;nbsp; &lt;br&gt;(Paid when liquidity removed)" style="text;html=1;strokeColor=none;fillColor=none;align=center;verticalAlign=middle;whiteSpace=wrap;rounded=0;labelBackgroundColor=none;fontSize=11;" vertex="1" parent="1">
          <mxGeometry x="565" y="269" width="156" height="20" as="geometry" />
        </mxCell>
        <mxCell id="PoUm69e8xTWA21SCmQiw-49" value="BUY / SELL" style="text;html=1;strokeColor=none;fillColor=none;align=center;verticalAlign=middle;whiteSpace=wrap;rounded=0;labelBackgroundColor=none;fontSize=11;fontStyle=1" vertex="1" parent="1">
          <mxGeometry x="810" y="340" width="80" height="20" as="geometry" />
        </mxCell>
        <mxCell id="PoUm69e8xTWA21SCmQiw-60" value="Remove Liquidity / Sell $KEYS" style="text;html=1;strokeColor=none;fillColor=none;align=center;verticalAlign=middle;whiteSpace=wrap;rounded=0;labelBackgroundColor=none;sketch=1;fontSize=11;" vertex="1" parent="1">
          <mxGeometry x="185" y="513" width="155" height="20" as="geometry" />
        </mxCell>
        <mxCell id="PoUm69e8xTWA21SCmQiw-73" style="edgeStyle=orthogonalEdgeStyle;rounded=0;sketch=0;orthogonalLoop=1;jettySize=auto;html=1;shadow=0;fontSize=11;startArrow=none;startFill=0;" edge="1" parent="1">
          <mxGeometry relative="1" as="geometry">
            <mxPoint x="511" y="592" as="targetPoint" />
            <mxPoint x="511" y="555" as="sourcePoint" />
          </mxGeometry>
        </mxCell>
        <mxCell id="PoUm69e8xTWA21SCmQiw-71" value="Liquidity Removed" style="text;html=1;strokeColor=none;fillColor=none;align=center;verticalAlign=middle;whiteSpace=wrap;rounded=0;sketch=1;fontSize=11;" vertex="1" parent="1">
          <mxGeometry x="466" y="527" width="90" height="20" as="geometry" />
        </mxCell>
        <mxCell id="PoUm69e8xTWA21SCmQiw-79" style="edgeStyle=orthogonalEdgeStyle;rounded=0;sketch=0;orthogonalLoop=1;jettySize=auto;html=1;exitX=0;exitY=0.5;exitDx=0;exitDy=0;shadow=0;fontSize=11;startArrow=none;startFill=0;endArrow=none;endFill=0;" edge="1" parent="1" source="PoUm69e8xTWA21SCmQiw-78">
          <mxGeometry relative="1" as="geometry">
            <mxPoint x="420" y="630" as="targetPoint" />
          </mxGeometry>
        </mxCell>
        <mxCell id="PoUm69e8xTWA21SCmQiw-82" style="edgeStyle=orthogonalEdgeStyle;rounded=0;sketch=0;orthogonalLoop=1;jettySize=auto;html=1;exitX=1;exitY=0.5;exitDx=0;exitDy=0;shadow=0;fontSize=11;startArrow=none;startFill=0;endArrow=none;endFill=0;" edge="1" parent="1" source="PoUm69e8xTWA21SCmQiw-78">
          <mxGeometry relative="1" as="geometry">
            <mxPoint x="610" y="630" as="targetPoint" />
          </mxGeometry>
        </mxCell>
        <mxCell id="PoUm69e8xTWA21SCmQiw-78" value="Any Loss?" style="shape=rhombus;html=1;dashed=0;whitespace=wrap;perimeter=rhombusPerimeter;sketch=1;fontSize=11;verticalAlign=middle;fillColor=#f5f5f5;strokeColor=#666666;fontColor=#333333;rounded=0;" vertex="1" parent="1">
          <mxGeometry x="451.5" y="600" width="119" height="60" as="geometry" />
        </mxCell>
        <mxCell id="PoUm69e8xTWA21SCmQiw-81" style="edgeStyle=orthogonalEdgeStyle;rounded=0;sketch=0;orthogonalLoop=1;jettySize=auto;html=1;shadow=0;fontSize=11;startArrow=none;startFill=0;endArrow=classic;endFill=1;" edge="1" parent="1" source="PoUm69e8xTWA21SCmQiw-80">
          <mxGeometry relative="1" as="geometry">
            <mxPoint x="40" y="420" as="targetPoint" />
          </mxGeometry>
        </mxCell>
        <mxCell id="PoUm69e8xTWA21SCmQiw-80" value="NO" style="text;html=1;strokeColor=none;fillColor=none;align=center;verticalAlign=middle;whiteSpace=wrap;rounded=0;sketch=0;fontSize=11;" vertex="1" parent="1">
          <mxGeometry x="380" y="620" width="40" height="20" as="geometry" />
        </mxCell>
        <mxCell id="PoUm69e8xTWA21SCmQiw-85" style="edgeStyle=orthogonalEdgeStyle;rounded=0;sketch=0;orthogonalLoop=1;jettySize=auto;html=1;exitX=1;exitY=0.5;exitDx=0;exitDy=0;entryX=0;entryY=0.5;entryDx=0;entryDy=0;shadow=0;fontSize=11;startArrow=none;startFill=0;endArrow=classic;endFill=1;" edge="1" parent="1" source="PoUm69e8xTWA21SCmQiw-83" target="PoUm69e8xTWA21SCmQiw-84">
          <mxGeometry relative="1" as="geometry" />
        </mxCell>
        <mxCell id="PoUm69e8xTWA21SCmQiw-83" value="YES" style="text;html=1;strokeColor=none;fillColor=none;align=center;verticalAlign=middle;whiteSpace=wrap;rounded=0;sketch=0;fontSize=11;" vertex="1" parent="1">
          <mxGeometry x="610" y="620" width="40" height="20" as="geometry" />
        </mxCell>
        <mxCell id="PoUm69e8xTWA21SCmQiw-86" style="edgeStyle=orthogonalEdgeStyle;rounded=0;sketch=0;orthogonalLoop=1;jettySize=auto;html=1;shadow=0;fontSize=11;startArrow=none;startFill=0;endArrow=none;endFill=0;exitX=0.5;exitY=1;exitDx=0;exitDy=0;" edge="1" parent="1" source="PoUm69e8xTWA21SCmQiw-88">
          <mxGeometry relative="1" as="geometry">
            <mxPoint x="40" y="630" as="targetPoint" />
            <mxPoint x="765" y="710" as="sourcePoint" />
            <Array as="points">
              <mxPoint x="765" y="720" />
              <mxPoint x="40" y="720" />
            </Array>
          </mxGeometry>
        </mxCell>
        <mxCell id="PoUm69e8xTWA21SCmQiw-89" style="edgeStyle=orthogonalEdgeStyle;rounded=0;sketch=0;orthogonalLoop=1;jettySize=auto;html=1;exitX=0.5;exitY=1;exitDx=0;exitDy=0;entryX=0.5;entryY=0;entryDx=0;entryDy=0;shadow=0;fontSize=11;startArrow=none;startFill=0;endArrow=none;endFill=0;" edge="1" parent="1" source="PoUm69e8xTWA21SCmQiw-84" target="PoUm69e8xTWA21SCmQiw-88">
          <mxGeometry relative="1" as="geometry" />
        </mxCell>
        <mxCell id="PoUm69e8xTWA21SCmQiw-91" style="edgeStyle=orthogonalEdgeStyle;rounded=0;sketch=0;orthogonalLoop=1;jettySize=auto;html=1;exitX=1;exitY=0.5;exitDx=0;exitDy=0;entryX=0;entryY=0.5;entryDx=0;entryDy=0;shadow=0;fontSize=11;startArrow=none;startFill=0;endArrow=none;endFill=0;" edge="1" parent="1" source="PoUm69e8xTWA21SCmQiw-84" target="PoUm69e8xTWA21SCmQiw-90">
          <mxGeometry relative="1" as="geometry" />
        </mxCell>
        <mxCell id="PoUm69e8xTWA21SCmQiw-84" value="Has Insurance" style="shape=rhombus;html=1;dashed=0;whitespace=wrap;perimeter=rhombusPerimeter;sketch=1;fontSize=11;verticalAlign=middle;fillColor=#f5f5f5;strokeColor=#666666;fontColor=#333333;shadow=0;" vertex="1" parent="1">
          <mxGeometry x="705" y="600" width="119" height="60" as="geometry" />
        </mxCell>
        <mxCell id="PoUm69e8xTWA21SCmQiw-88" value="NO" style="text;html=1;strokeColor=none;fillColor=none;align=center;verticalAlign=middle;whiteSpace=wrap;rounded=0;sketch=0;fontSize=11;" vertex="1" parent="1">
          <mxGeometry x="744.5" y="680" width="40" height="20" as="geometry" />
        </mxCell>
        <mxCell id="PoUm69e8xTWA21SCmQiw-92" style="edgeStyle=orthogonalEdgeStyle;rounded=0;sketch=0;orthogonalLoop=1;jettySize=auto;html=1;exitX=1;exitY=0.5;exitDx=0;exitDy=0;entryX=0;entryY=0.5;entryDx=0;entryDy=0;shadow=0;fontSize=11;startArrow=none;startFill=0;endArrow=classic;endFill=1;" edge="1" parent="1" source="PoUm69e8xTWA21SCmQiw-90" target="PoUm69e8xTWA21SCmQiw-18">
          <mxGeometry relative="1" as="geometry" />
        </mxCell>
        <mxCell id="PoUm69e8xTWA21SCmQiw-90" value="YES" style="text;html=1;strokeColor=none;fillColor=none;align=center;verticalAlign=middle;whiteSpace=wrap;rounded=0;sketch=0;fontSize=11;" vertex="1" parent="1">
          <mxGeometry x="840" y="620" width="40" height="20" as="geometry" />
        </mxCell>
      </root>
    </mxGraphModel>
  </diagram>
</mxfile>
